<?xml version="1.0" encoding="UTF-8" standalone="no"?>
<svg
   xmlns:dc="http://purl.org/dc/elements/1.1/"
   xmlns:cc="http://creativecommons.org/ns#"
   xmlns:rdf="http://www.w3.org/1999/02/22-rdf-syntax-ns#"
   xmlns:svg="http://www.w3.org/2000/svg"
   xmlns="http://www.w3.org/2000/svg"
   xmlns:xlink="http://www.w3.org/1999/xlink"
   xml:space="preserve"
   enable-background="new 0 0 512 512"
   viewBox="0 0 512 512"
   y="0px"
   x="0px"
   id="Layer_1"
   version="1.1"><metadata
     id="metadata90"><rdf:RDF><cc:Work
         rdf:about=""><dc:format>image/svg+xml</dc:format><dc:type
           rdf:resource="http://purl.org/dc/dcmitype/StillImage" /><dc:title></dc:title><dc:creator><cc:Agent><dc:title>Brahim Djoudi</dc:title></cc:Agent></dc:creator><dc:date>20171221</dc:date></cc:Work></rdf:RDF></metadata><defs
     id="defs88"><linearGradient
       id="SVGID_9_"
       gradientUnits="userSpaceOnUse"
       x1="95.8"
       y1="-70.4"
       x2="462.7"
       y2="-437.3"
       gradientTransform="matrix(0.5,0,0,0.5,0,256)"><stop
         offset="0"
         style="stop-color:#000000"
         id="stop68" /><stop
         offset="1"
         style="stop-color:#000000;stop-opacity:0"
         id="stop70" /></linearGradient></defs><path
     d="m 416,8 -197,0 -4.1,0 c -3.7,0 -7.3,0.8 -10.6,2.3 -2.8,1.3 -5.4,2.9 -7.6,5.1 L 83.5,128.6 c -2.2,2.2 -4,4.7 -5.1,7.6 -1.5,3.3 -2.3,6.9 -2.3,10.6 L 76,152.5 76,484 c 0,11 9,20 20,20 l 320,0 c 11,0 20,-9 20,-20 L 436,28 C 436,17 427,8 416,8 Z"
     id="path5"
     style="fill:#616161" /><g
     transform="matrix(0.87911637,0,0,0.85917219,31.007113,36.455924)"
     id="g4236"><g
       transform="matrix(0.9320428,0,0,0.89444848,116.6974,124.70152)"
       id="g4725"
       style="stroke:#000000;stroke-width:38.00859833"><g
         transform="translate(150,150)"
         id="svgstar"><path
           d="m -84.1487,-15.8513 a 22.4171,22.4171 0 1 0 0,31.7026 l 168.2974,0 a 22.4171,22.4171 0 1 0 0,-31.7026 z"
           id="svgbar"
           style="fill:#ffb13b" /><use
           transform="matrix(0.70710678,0.70710678,-0.70710678,0.70710678,0,0)"
           id="use4729"
           x="0"
           y="0"
           width="744.09448"
           height="1052.3622"
           xlink:href="#svgbar" /><use
           transform="matrix(0,1,-1,0,0,0)"
           id="use4731"
           x="0"
           y="0"
           width="744.09448"
           height="1052.3622"
           xlink:href="#svgbar" /><use
           transform="matrix(-0.70710678,0.70710678,-0.70710678,-0.70710678,0,0)"
           id="use4733"
           x="0"
           y="0"
           width="744.09448"
           height="1052.3622"
           xlink:href="#svgbar" /></g></g><use
       transform="matrix(0.9320428,0,0,0.89444848,116.6974,124.70152)"
       id="use4735"
       x="0"
       y="0"
       width="744.09448"
       height="1052.3622"
       xlink:href="#svgstar" /></g><g
     id="g7"><linearGradient
       id="SVGID_1_"
       gradientUnits="userSpaceOnUse"
       x1="91.025002"
       y1="271.02499"
       x2="305.02499"
       y2="57.025002"><stop
         offset="0"
         style="stop-color:#FFFFFF;stop-opacity:0.2"
         id="stop10" /><stop
         offset="1"
         style="stop-color:#FFFFFF;stop-opacity:0"
         id="stop12" /></linearGradient><path
       d="m 256,256 0,-248 -37,0 -4.1,0 c -3.7,0 -7.3,0.8 -10.6,2.3 -2.8,1.3 -5.4,2.9 -7.6,5.1 L 83.5,128.6 c -2.2,2.2 -4,4.7 -5.1,7.6 -1.5,3.3 -2.3,6.9 -2.3,10.6 l -0.1,5.7 0,103.5 180,0 z"
       id="path14"
       style="fill:url(#SVGID_1_)" /><linearGradient
       id="SVGID_2_"
       gradientUnits="userSpaceOnUse"
       x1="239"
       y1="239"
       x2="447.125"
       y2="30.875"><stop
         offset="0"
         style="stop-color:#FFFFFF;stop-opacity:0.2"
         id="stop17" /><stop
         offset="1"
         style="stop-color:#FFFFFF;stop-opacity:0"
         id="stop19" /></linearGradient><path
       d="m 416,8 -160,0 0,248 180,0 0,-228 C 436,17 427,8 416,8 Z"
       id="path21"
       style="fill:url(#SVGID_2_)" /><linearGradient
       id="SVGID_3_"
       gradientUnits="userSpaceOnUse"
       x1="64.875"
       y1="481.125"
       x2="273"
       y2="273"><stop
         offset="0"
         style="stop-color:#FFFFFF;stop-opacity:0.2"
         id="stop24" /><stop
         offset="1"
         style="stop-color:#FFFFFF;stop-opacity:0"
         id="stop26" /></linearGradient><path
       d="m 76,484 c 0,11 9,20 20,20 l 160,0 0,-248 -180,0 0,228 z"
       id="path28"
       style="fill:url(#SVGID_3_)" /><linearGradient
       id="SVGID_4_"
       gradientUnits="userSpaceOnUse"
       x1="236.0625"
       y1="484.0625"
       x2="450.0625"
       y2="270.0625"><stop
         offset="0"
         style="stop-color:#FFFFFF;stop-opacity:0.2"
         id="stop31" /><stop
         offset="1"
         style="stop-color:#FFFFFF;stop-opacity:0"
         id="stop33" /></linearGradient><path
       d="m 256,256 0,248 160,0 c 11,0 20,-9 20,-20 l 0,-228 -180,0 z"
       id="path35"
       style="fill:url(#SVGID_4_)" /></g><g
     id="g37"><linearGradient
       id="SVGID_5_"
       gradientUnits="userSpaceOnUse"
       x1="76"
       y1="271.02499"
       x2="256"
       y2="271.02499"><stop
         offset="0"
         style="stop-color:#FFFFFF;stop-opacity:0.2"
         id="stop40" /><stop
         offset="1"
         style="stop-color:#FFFFFF;stop-opacity:0"
         id="stop42" /></linearGradient><path
       d="M 256,256 106,106 83.5,128.5 c -2.2,2.2 -4,4.7 -5.1,7.6 -1.5,3.3 -2.3,6.9 -2.3,10.6 L 76,152.4 76,436 256,256 Z"
       id="path44"
       style="fill:url(#SVGID_5_)" /><linearGradient
       id="SVGID_6_"
       gradientUnits="userSpaceOnUse"
       x1="106.05"
       y1="132"
       x2="436"
       y2="132"><stop
         offset="0"
         style="stop-color:#FFFFFF;stop-opacity:0.2"
         id="stop47" /><stop
         offset="1"
         style="stop-color:#FFFFFF;stop-opacity:0"
         id="stop49" /></linearGradient><path
       d="M 256,256 436,76 436,28 C 436,17 427,8 416,8 l -197,0 -4.1,0 c -3.7,0 -7.3,0.8 -10.6,2.3 -2.8,1.3 -5.4,2.9 -7.6,5.1 L 106,106 256,256 Z"
       id="path51"
       style="fill:url(#SVGID_6_)" /><linearGradient
       id="SVGID_7_"
       gradientUnits="userSpaceOnUse"
       x1="76"
       y1="380"
       x2="436"
       y2="380"><stop
         offset="0"
         style="stop-color:#FFFFFF;stop-opacity:0.2"
         id="stop54" /><stop
         offset="1"
         style="stop-color:#FFFFFF;stop-opacity:0"
         id="stop56" /></linearGradient><path
       d="m 436,484 0,-48 -180,-180 -180,180 0,48 c 0,11 9,20 20,20 l 320,0 c 11,0 20,-9 20,-20 z"
       id="path58"
       style="fill:url(#SVGID_7_)" /><linearGradient
       id="SVGID_8_"
       gradientUnits="userSpaceOnUse"
       x1="256"
       y1="256"
       x2="436"
       y2="256"><stop
         offset="0"
         style="stop-color:#FFFFFF;stop-opacity:0.2"
         id="stop61" /><stop
         offset="1"
         style="stop-color:#FFFFFF;stop-opacity:0"
         id="stop63" /></linearGradient><polygon
       points="256,256 436,436 436,76 "
       id="polygon65"
       style="fill:url(#SVGID_8_)" /></g><path
     enable-background="new    "
     d="M 196.7,15.6 83.5,128.8 c -2.2,2.2 -4,4.7 -5.1,7.6 -1.5,3.3 -2.3,6.9 -2.3,10.6 l 0,102 120.6,-120.6 c 4.9,-4.9 7.6,-11.3 7.6,-18.1 l 0,-100 c -2.8,1.3 -5.4,3.1 -7.6,5.3 z"
     id="path72"
     style="opacity:0.7;fill:url(#SVGID_9_)" /><path
     d="m 214.9,8 c -3.7,0 -7.3,0.8 -10.6,2.3 -2.8,1.3 -5.4,2.9 -7.6,5.1 L 83.5,128.6 c -2.2,2.2 -4,4.7 -5.1,7.6 -1.5,3.3 -2.3,6.9 -2.3,10.6 l 0,4.1 c 0,-8.2 6.5,-14.7 14.7,-14.7 l 87.8,0 c 14.1,0 25.6,-11.5 25.6,-25.6 l 0,-87.9 C 204.2,14.5 210.7,8 218.9,8 l -4,0 z"
     id="path74"
     style="fill:#000000" /></svg>