<?xml version="1.0" encoding="UTF-8" standalone="no"?>
<svg
   xmlns:dc="http://purl.org/dc/elements/1.1/"
   xmlns:cc="http://creativecommons.org/ns#"
   xmlns:rdf="http://www.w3.org/1999/02/22-rdf-syntax-ns#"
   xmlns:svg="http://www.w3.org/2000/svg"
   xmlns="http://www.w3.org/2000/svg"
   xml:space="preserve"
   enable-background="new 0 0 512 512"
   viewBox="0 0 512 512"
   y="0px"
   x="0px"
   id="Layer_1"
   version="1.1"><metadata
     id="metadata94"><rdf:RDF><cc:Work
         rdf:about=""><dc:format>image/svg+xml</dc:format><dc:type
           rdf:resource="http://purl.org/dc/dcmitype/StillImage" /><dc:title></dc:title><dc:creator><cc:Agent><dc:title>Brahim Djoudi</dc:title></cc:Agent></dc:creator><dc:date>20171220</dc:date></cc:Work></rdf:RDF></metadata><defs
     id="defs92"><linearGradient
       id="SVGID_9_"
       gradientUnits="userSpaceOnUse"
       x1="95.8"
       y1="-70.4"
       x2="462.7"
       y2="-437.3"
       gradientTransform="matrix(0.5,0,0,0.5,0,256)"><stop
         offset="0"
         style="stop-color:#b22222;stop-opacity:1"
         id="stop72" /><stop
         offset="1"
         style="stop-color:#532461;stop-opacity:0"
         id="stop74" /></linearGradient></defs><g
     display="none"
     id="g7"
     style="display:none"><path
       display="inline"
       d="m 394.4,473 -10.8,0 c -1.4,0 -2.5,-1.1 -2.5,-2.5 0,-1.4 1.1,-2.5 2.5,-2.5 l 10.8,0 c 0.4,0 0.7,0 1.1,0 1.4,-0.1 2.6,0.9 2.7,2.3 0.1,1.4 -0.9,2.6 -2.3,2.7 -0.5,0 -1,0 -1.5,0 z m -22.9,0 -12.1,0 c -1.4,0 -2.5,-1.1 -2.5,-2.5 0,-1.4 1.1,-2.5 2.5,-2.5 l 12.1,0 c 1.4,0 2.5,1.1 2.5,2.5 0,1.4 -1.1,2.5 -2.5,2.5 z m -24.2,0 -12.1,0 c -1.4,0 -2.5,-1.1 -2.5,-2.5 0,-1.4 1.1,-2.5 2.5,-2.5 l 12.1,0 c 1.4,0 2.5,1.1 2.5,2.5 0,1.4 -1.1,2.5 -2.5,2.5 z m -24.2,0 -12.1,0 c -1.4,0 -2.5,-1.1 -2.5,-2.5 0,-1.4 1.1,-2.5 2.5,-2.5 l 12.1,0 c 1.4,0 2.5,1.1 2.5,2.5 0,1.4 -1.1,2.5 -2.5,2.5 z m -24.2,0 -12.1,0 c -1.4,0 -2.5,-1.1 -2.5,-2.5 0,-1.4 1.1,-2.5 2.5,-2.5 l 12.1,0 c 1.4,0 2.5,1.1 2.5,2.5 0,1.4 -1.1,2.5 -2.5,2.5 z m -24.1,0 -12.1,0 c -1.4,0 -2.5,-1.1 -2.5,-2.5 0,-1.4 1.1,-2.5 2.5,-2.5 l 12.1,0 c 1.4,0 2.5,1.1 2.5,2.5 0,1.4 -1.2,2.5 -2.5,2.5 z m -24.2,0 -12.1,0 c -1.4,0 -2.5,-1.1 -2.5,-2.5 0,-1.4 1.1,-2.5 2.5,-2.5 l 12.1,0 c 1.4,0 2.5,1.1 2.5,2.5 0,1.4 -1.1,2.5 -2.5,2.5 z m -24.2,0 -12.1,0 c -1.4,0 -2.5,-1.1 -2.5,-2.5 0,-1.4 1.1,-2.5 2.5,-2.5 l 12.1,0 c 1.4,0 2.5,1.1 2.5,2.5 0,1.4 -1.1,2.5 -2.5,2.5 z m -24.2,0 -12.1,0 c -1.4,0 -2.5,-1.1 -2.5,-2.5 0,-1.4 1.1,-2.5 2.5,-2.5 l 12.1,0 c 1.4,0 2.5,1.1 2.5,2.5 0,1.4 -1.1,2.5 -2.5,2.5 z m -24.2,0 -12.1,0 c -1.4,0 -2.5,-1.1 -2.5,-2.5 0,-1.4 1.1,-2.5 2.5,-2.5 l 12.1,0 c 1.4,0 2.5,1.1 2.5,2.5 0,1.4 -1.1,2.5 -2.5,2.5 z m -24.1,0 -12.1,0 c -1.4,0 -2.5,-1.1 -2.5,-2.5 0,-1.4 1.1,-2.5 2.5,-2.5 l 12.1,0 c 1.4,0 2.5,1.1 2.5,2.5 0,1.4 -1.2,2.5 -2.5,2.5 z m -24.2,0 -12.1,0 c -1.4,0 -2.5,-1.1 -2.5,-2.5 0,-1.4 1.1,-2.5 2.5,-2.5 l 12.1,0 c 1.4,0 2.5,1.1 2.5,2.5 0,1.4 -1.2,2.5 -2.5,2.5 z m -23.2,-4.1 c -0.6,0 -1.1,-0.2 -1.6,-0.6 -3.6,-3 -6,-7.2 -6.8,-11.8 -0.2,-1.4 0.7,-2.7 2,-2.9 1.4,-0.2 2.7,0.7 2.9,2 0.6,3.4 2.4,6.5 5.1,8.8 1.1,0.9 1.2,2.5 0.3,3.5 -0.5,0.7 -1.2,1 -1.9,1 z m 300,-0.8 c -0.6,0 -1.3,-0.3 -1.8,-0.8 -1,-1 -0.9,-2.6 0,-3.5 2.5,-2.4 4.1,-5.7 4.4,-9.1 0.1,-1.4 1.4,-2.4 2.7,-2.2 1.4,0.1 2.4,1.4 2.2,2.7 -0.5,4.6 -2.5,8.9 -5.9,12.2 -0.4,0.4 -1,0.7 -1.6,0.7 z M 100.3,446.6 c -1.4,0 -2.5,-1.1 -2.5,-2.5 l 0,-12.1 c 0,-1.4 1.1,-2.5 2.5,-2.5 1.4,0 2.5,1.1 2.5,2.5 l 0,12.1 c 0,1.3 -1.1,2.5 -2.5,2.5 z m 311.4,-1.3 c -1.4,0 -2.5,-1.1 -2.5,-2.5 l 0,-12.1 c 0,-1.4 1.1,-2.5 2.5,-2.5 1.4,0 2.5,1.1 2.5,2.5 l 0,12.1 c 0,1.4 -1.1,2.5 -2.5,2.5 z M 100.3,422.4 c -1.4,0 -2.5,-1.1 -2.5,-2.5 l 0,-12.1 c 0,-1.4 1.1,-2.5 2.5,-2.5 1.4,0 2.5,1.1 2.5,2.5 l 0,12.1 c 0,1.4 -1.1,2.5 -2.5,2.5 z m 311.4,-1.3 c -1.4,0 -2.5,-1.1 -2.5,-2.5 l 0,-12.1 c 0,-1.4 1.1,-2.5 2.5,-2.5 1.4,0 2.5,1.1 2.5,2.5 l 0,12.1 c 0,1.4 -1.1,2.5 -2.5,2.5 z M 100.3,398.2 c -1.4,0 -2.5,-1.1 -2.5,-2.5 l 0,-12.1 c 0,-1.4 1.1,-2.5 2.5,-2.5 1.4,0 2.5,1.1 2.5,2.5 l 0,12.1 c 0,1.4 -1.1,2.5 -2.5,2.5 z m 311.4,-1.3 c -1.4,0 -2.5,-1.1 -2.5,-2.5 l 0,-12.1 c 0,-1.4 1.1,-2.5 2.5,-2.5 1.4,0 2.5,1.1 2.5,2.5 l 0,12.1 c 0,1.4 -1.1,2.5 -2.5,2.5 z M 100.3,374 c -1.4,0 -2.5,-1.1 -2.5,-2.5 l 0,-12.1 c 0,-1.4 1.1,-2.5 2.5,-2.5 1.4,0 2.5,1.1 2.5,2.5 l 0,12.1 c 0,1.4 -1.1,2.5 -2.5,2.5 z m 311.4,-1.2 c -1.4,0 -2.5,-1.1 -2.5,-2.5 l 0,-12.1 c 0,-1.4 1.1,-2.5 2.5,-2.5 1.4,0 2.5,1.1 2.5,2.5 l 0,12.1 c 0,1.3 -1.1,2.5 -2.5,2.5 z m -311.4,-23 c -1.4,0 -2.5,-1.1 -2.5,-2.5 l 0,-12.1 c 0,-1.4 1.1,-2.5 2.5,-2.5 1.4,0 2.5,1.1 2.5,2.5 l 0,12.1 c 0,1.4 -1.1,2.5 -2.5,2.5 z m 311.4,-1.2 c -1.4,0 -2.5,-1.1 -2.5,-2.5 l 0,-12.1 c 0,-1.4 1.1,-2.5 2.5,-2.5 1.4,0 2.5,1.1 2.5,2.5 l 0,12.1 c 0,1.4 -1.1,2.5 -2.5,2.5 z m -311.4,-23 c -1.4,0 -2.5,-1.1 -2.5,-2.5 l 0,-12.1 c 0,-1.4 1.1,-2.5 2.5,-2.5 1.4,0 2.5,1.1 2.5,2.5 l 0,12.1 c 0,1.4 -1.1,2.5 -2.5,2.5 z m 311.4,-1.2 c -1.4,0 -2.5,-1.1 -2.5,-2.5 l 0,-12.1 c 0,-1.4 1.1,-2.5 2.5,-2.5 1.4,0 2.5,1.1 2.5,2.5 l 0,12.1 c 0,1.4 -1.1,2.5 -2.5,2.5 z M 100.3,301.5 c -1.4,0 -2.5,-1.1 -2.5,-2.5 l 0,-12.1 c 0,-1.4 1.1,-2.5 2.5,-2.5 1.4,0 2.5,1.1 2.5,2.5 l 0,12.1 c 0,1.3 -1.1,2.5 -2.5,2.5 z m 311.4,-1.3 c -1.4,0 -2.5,-1.1 -2.5,-2.5 l 0,-12.1 c 0,-1.4 1.1,-2.5 2.5,-2.5 1.4,0 2.5,1.1 2.5,2.5 l 0,12.1 c 0,1.4 -1.1,2.5 -2.5,2.5 z M 100.3,277.3 c -1.4,0 -2.5,-1.1 -2.5,-2.5 l 0,-12.1 c 0,-1.4 1.1,-2.5 2.5,-2.5 1.4,0 2.5,1.1 2.5,2.5 l 0,12.1 c 0,1.4 -1.1,2.5 -2.5,2.5 z M 411.7,276 c -1.4,0 -2.5,-1.1 -2.5,-2.5 l 0,-12.1 c 0,-1.4 1.1,-2.5 2.5,-2.5 1.4,0 2.5,1.1 2.5,2.5 l 0,12.1 c 0,1.4 -1.1,2.5 -2.5,2.5 z M 100.3,253.1 c -1.4,0 -2.5,-1.1 -2.5,-2.5 l 0,-12.1 c 0,-1.4 1.1,-2.5 2.5,-2.5 1.4,0 2.5,1.1 2.5,2.5 l 0,12.1 c 0,1.4 -1.1,2.5 -2.5,2.5 z m 311.4,-1.3 c -1.4,0 -2.5,-1.1 -2.5,-2.5 l 0,-12.1 c 0,-1.4 1.1,-2.5 2.5,-2.5 1.4,0 2.5,1.1 2.5,2.5 l 0,12.1 c 0,1.4 -1.1,2.5 -2.5,2.5 z M 100.3,228.9 c -1.4,0 -2.5,-1.1 -2.5,-2.5 l 0,-12.1 c 0,-1.4 1.1,-2.5 2.5,-2.5 1.4,0 2.5,1.1 2.5,2.5 l 0,12.1 c 0,1.4 -1.1,2.5 -2.5,2.5 z m 311.4,-1.2 c -1.4,0 -2.5,-1.1 -2.5,-2.5 l 0,-12.1 c 0,-1.4 1.1,-2.5 2.5,-2.5 1.4,0 2.5,1.1 2.5,2.5 l 0,12.1 c 0,1.3 -1.1,2.5 -2.5,2.5 z m -311.4,-23 c -1.4,0 -2.5,-1.1 -2.5,-2.5 l 0,-12.1 c 0,-1.4 1.1,-2.5 2.5,-2.5 1.4,0 2.5,1.1 2.5,2.5 l 0,12.1 c 0,1.4 -1.1,2.5 -2.5,2.5 z m 311.4,-1.2 c -1.4,0 -2.5,-1.1 -2.5,-2.5 l 0,-12.1 c 0,-1.4 1.1,-2.5 2.5,-2.5 1.4,0 2.5,1.1 2.5,2.5 l 0,12.1 c 0,1.4 -1.1,2.5 -2.5,2.5 z M 100.3,180.6 c -1.4,0 -2.5,-1.1 -2.5,-2.5 l 0,-12.1 c 0,-1.4 1.1,-2.5 2.5,-2.5 1.4,0 2.5,1.1 2.5,2.5 l 0,12.1 c 0,1.3 -1.1,2.5 -2.5,2.5 z m 311.4,-1.3 c -1.4,0 -2.5,-1.1 -2.5,-2.5 l 0,-12.1 c 0,-1.4 1.1,-2.5 2.5,-2.5 1.4,0 2.5,1.1 2.5,2.5 l 0,12.1 c 0,1.4 -1.1,2.5 -2.5,2.5 z M 100.3,156.4 c -1.4,0 -2.5,-1.1 -2.5,-2.5 l 0,-12.1 c 0,-1.4 1.1,-2.5 2.5,-2.5 1.4,0 2.5,1.1 2.5,2.5 l 0,12.1 c 0,1.3 -1.1,2.5 -2.5,2.5 z m 311.4,-1.3 c -1.4,0 -2.5,-1.1 -2.5,-2.5 l 0,-12.1 c 0,-1.4 1.1,-2.5 2.5,-2.5 1.4,0 2.5,1.1 2.5,2.5 l 0,12.1 c 0,1.4 -1.1,2.5 -2.5,2.5 z M 100.3,132.2 c -1.4,0 -2.5,-1.1 -2.5,-2.5 l 0,-12.1 c 0,-1.4 1.1,-2.5 2.5,-2.5 1.4,0 2.5,1.1 2.5,2.5 l 0,12.1 c 0,1.4 -1.1,2.5 -2.5,2.5 z m 311.4,-1.3 c -1.4,0 -2.5,-1.1 -2.5,-2.5 l 0,-12.1 c 0,-1.4 1.1,-2.5 2.5,-2.5 1.4,0 2.5,1.1 2.5,2.5 l 0,12.1 c 0,1.4 -1.1,2.5 -2.5,2.5 z m 0,-24.1 c -1.4,0 -2.5,-1.1 -2.5,-2.5 l 0,-12.1 c 0,-1.4 1.1,-2.5 2.5,-2.5 1.4,0 2.5,1.1 2.5,2.5 l 0,12.1 c 0,1.3 -1.1,2.5 -2.5,2.5 z m 0,-24.2 c -1.4,0 -2.5,-1.1 -2.5,-2.5 l 0,-12.1 c 0,-1.4 1.1,-2.5 2.5,-2.5 1.4,0 2.5,1.1 2.5,2.5 l 0,12.1 c 0,1.3 -1.1,2.5 -2.5,2.5 z m -0.3,-24.2 c -1.2,0 -2.3,-0.9 -2.5,-2.1 -0.6,-3.4 -2.4,-6.5 -5,-8.8 -1.1,-0.9 -1.2,-2.5 -0.3,-3.5 0.9,-1.1 2.5,-1.2 3.5,-0.3 3.6,3 5.9,7.2 6.7,11.8 0.2,1.4 -0.7,2.7 -2,2.9 -0.1,0 -0.2,0 -0.4,0 z M 394.5,44 382.3,44 c -1.4,0 -2.5,-1.1 -2.5,-2.5 0,-1.4 1.1,-2.5 2.5,-2.5 l 12.1,0 c 1.4,0 2.5,1.1 2.5,2.5 0,1.4 -1.1,2.5 -2.4,2.5 z m -24.3,0 -12.1,0 c -1.4,0 -2.5,-1.1 -2.5,-2.5 0,-1.4 1.1,-2.5 2.5,-2.5 l 12.1,0 c 1.4,0 2.5,1.1 2.5,2.5 0,1.4 -1.1,2.5 -2.5,2.5 z m -24.2,0 -12.1,0 c -1.4,0 -2.5,-1.1 -2.5,-2.5 0,-1.4 1.1,-2.5 2.5,-2.5 l 12.1,0 c 1.4,0 2.5,1.1 2.5,2.5 0,1.4 -1.1,2.5 -2.5,2.5 z m -24.2,0 -12.1,0 c -1.4,0 -2.5,-1.1 -2.5,-2.5 0,-1.4 1.1,-2.5 2.5,-2.5 l 12.1,0 c 1.4,0 2.5,1.1 2.5,2.5 0,1.4 -1.1,2.5 -2.5,2.5 z m -24.1,0 -12.1,0 c -1.4,0 -2.5,-1.1 -2.5,-2.5 0,-1.4 1.1,-2.5 2.5,-2.5 l 12.1,0 c 1.4,0 2.5,1.1 2.5,2.5 0,1.4 -1.2,2.5 -2.5,2.5 z m -24.2,0 -12.1,0 c -1.4,0 -2.5,-1.1 -2.5,-2.5 0,-1.4 1.1,-2.5 2.5,-2.5 l 12.1,0 c 1.4,0 2.5,1.1 2.5,2.5 0,1.4 -1.1,2.5 -2.5,2.5 z m -24.2,0 -12.1,0 c -1.4,0 -2.5,-1.1 -2.5,-2.5 0,-1.4 1.1,-2.5 2.5,-2.5 l 12.1,0 c 1.4,0 2.5,1.1 2.5,2.5 0,1.4 -1.1,2.5 -2.5,2.5 z m -24.2,0 -12.1,0 c -1.4,0 -2.5,-1.1 -2.5,-2.5 0,-1.4 1.1,-2.5 2.5,-2.5 l 12.1,0 c 1.4,0 2.5,1.1 2.5,2.5 0,1.4 -1.1,2.5 -2.5,2.5 z m -24.2,0 -12.1,0 c -1.4,0 -2.5,-1.1 -2.5,-2.5 0,-1.4 1.1,-2.5 2.5,-2.5 l 12.1,0 c 1.4,0 2.5,1.1 2.5,2.5 0,1.4 -1.1,2.5 -2.5,2.5 z"
       id="path9"
       style="display:inline;fill:#ffffff" /></g><g
     display="none"
     id="g41"
     style="display:none"><linearGradient
       id="SVGID_5_"
       gradientUnits="userSpaceOnUse"
       x1="76"
       y1="271.02499"
       x2="256"
       y2="271.02499"><stop
         offset="0"
         style="stop-color:#FFFFFF;stop-opacity:0.2"
         id="stop44" /><stop
         offset="1"
         style="stop-color:#FFFFFF;stop-opacity:0"
         id="stop46" /></linearGradient><path
       display="inline"
       d="M 256,256 106,106 83.5,128.5 c -2.2,2.2 -4,4.7 -5.1,7.6 -1.5,3.3 -2.3,6.9 -2.3,10.6 L 76,152.4 76,436 256,256 Z"
       id="path48"
       style="display:inline;fill:url(#SVGID_5_)" /><linearGradient
       id="SVGID_6_"
       gradientUnits="userSpaceOnUse"
       x1="106.05"
       y1="132"
       x2="436"
       y2="132"><stop
         offset="0"
         style="stop-color:#FFFFFF;stop-opacity:0.2"
         id="stop51" /><stop
         offset="1"
         style="stop-color:#FFFFFF;stop-opacity:0"
         id="stop53" /></linearGradient><path
       display="inline"
       d="M 256,256 436,76 436,28 C 436,17 427,8 416,8 l -197,0 -4.1,0 c -3.7,0 -7.3,0.8 -10.6,2.3 -2.8,1.3 -5.4,2.9 -7.6,5.1 L 106,106 256,256 Z"
       id="path55"
       style="display:inline;fill:url(#SVGID_6_)" /><linearGradient
       id="SVGID_7_"
       gradientUnits="userSpaceOnUse"
       x1="76"
       y1="380"
       x2="436"
       y2="380"><stop
         offset="0"
         style="stop-color:#FFFFFF;stop-opacity:0.2"
         id="stop58" /><stop
         offset="1"
         style="stop-color:#FFFFFF;stop-opacity:0"
         id="stop60" /></linearGradient><path
       display="inline"
       d="m 436,484 0,-48 -180,-180 -180,180 0,48 c 0,11 9,20 20,20 l 320,0 c 11,0 20,-9 20,-20 z"
       id="path62"
       style="display:inline;fill:url(#SVGID_7_)" /><linearGradient
       id="SVGID_8_"
       gradientUnits="userSpaceOnUse"
       x1="256"
       y1="256"
       x2="436"
       y2="256"><stop
         offset="0"
         style="stop-color:#FFFFFF;stop-opacity:0.2"
         id="stop65" /><stop
         offset="1"
         style="stop-color:#FFFFFF;stop-opacity:0"
         id="stop67" /></linearGradient><polygon
       display="inline"
       points="256,256 436,436 436,76 "
       id="polygon69"
       style="display:inline;fill:url(#SVGID_8_)" /></g><g
     id="g4565"><path
       style="fill:#b22222;fill-opacity:1"
       id="path5"
       d="m 416,8 -197,0 -4.1,0 c -3.7,0 -7.3,0.8 -10.6,2.3 -2.8,1.3 -5.4,2.9 -7.6,5.1 L 83.5,128.6 c -2.2,2.2 -4,4.7 -5.1,7.6 -1.5,3.3 -2.3,6.9 -2.3,10.6 L 76,152.5 76,484 c 0,11 9,20 20,20 l 320,0 c 11,0 20,-9 20,-20 L 436,28 C 436,17 427,8 416,8 Z" /><path
       style="fill:#000000;fill-opacity:0.8558282"
       id="path78"
       d="m 214.9,8 c -3.7,0 -7.3,0.8 -10.6,2.3 -2.8,1.3 -5.4,2.9 -7.6,5.1 L 83.5,128.6 c -2.2,2.2 -4,4.7 -5.1,7.6 -1.5,3.3 -2.3,6.9 -2.3,10.6 l 0,4.1 c 0,-8.2 6.5,-14.7 14.7,-14.7 l 87.8,0 c 14.1,0 25.6,-11.5 25.6,-25.6 l 0,-87.9 C 204.2,14.5 210.7,8 218.9,8 l -4,0 z" /><path
       style="opacity:0.7;fill:url(#SVGID_9_)"
       id="path76"
       d="M 196.7,15.6 83.5,128.8 c -2.2,2.2 -4,4.7 -5.1,7.6 -1.5,3.3 -2.3,6.9 -2.3,10.6 l 0,102 120.6,-120.6 c 4.9,-4.9 7.6,-11.3 7.6,-18.1 l 0,-100 c -2.8,1.3 -5.4,3.1 -7.6,5.3 z"
       enable-background="new    " /><path
       style="fill:#fffafa;fill-opacity:1;fill-rule:nonzero;stroke:none"
       id="rect4525"
       d="m 342.91193,366.37256 0,-58.63623 c 0,-3.65252 -7.31538,-7.61607 -19.07759,-11.66938 8.24472,-3.05616 14.83341,-6.10213 19.07759,-9.06548 l 0,-58.53978 c 0,-3.63165 -7.22356,-7.63959 -18.86679,-11.66938 8.1632,-3.02911 14.65237,-6.12288 18.86679,-9.06547 l 0,-58.53978 c 0,20.41413 -107.68738,36.13393 -169.48486,39.83019 l 0,58.05759 c 26.10388,1.56132 60.37244,5.38515 91.27729,10.70496 -30.90054,5.31801 -65.17814,9.04747 -91.27729,10.60854 l 0,58.05757 c 26.07082,1.55935 60.29756,5.29977 91.1719,10.60852 -30.87434,5.30878 -65.10108,9.04919 -91.1719,10.60854 l 0,58.05757 0,0.48221 c 45.98682,-32.83073 121.81257,-9.07806 169.48486,-39.83019 z" /><path
       style="fill:#000000;fill-opacity:1;fill-rule:evenodd;stroke:none"
       id="path3857"
       d="m 324.04514,216.79231 c -34.61832,12.86932 -99.60848,25.51204 -150.61807,30.28253 26.16095,1.56475 60.53051,5.36681 91.48809,10.70496 42.16224,-7.26799 77.99677,-17.5421 77.99677,-29.31811 0,-3.63165 -7.22356,-7.63959 -18.86679,-11.66938 z m -0.2108,79.27464 c -34.66122,12.84751 -99.48255,25.61641 -150.40727,30.37896 26.07082,1.55935 60.29756,5.29977 91.1719,10.60852 42.29386,-7.27109 78.31296,-17.51383 78.31296,-29.3181 0,-3.65252 -7.31538,-7.61607 -19.07759,-11.66938 z" /><g
       id="g11"><linearGradient
         y2="57.025002"
         x2="305.02499"
         y1="271.02499"
         x1="91.025002"
         gradientUnits="userSpaceOnUse"
         id="SVGID_1_"><stop
           id="stop14"
           style="stop-color:#FFFFFF;stop-opacity:0.2"
           offset="0" /><stop
           id="stop16"
           style="stop-color:#FFFFFF;stop-opacity:0"
           offset="1" /></linearGradient><path
         style="fill:url(#SVGID_1_)"
         id="path18"
         d="m 256,256 0,-248 -37,0 -4.1,0 c -3.7,0 -7.3,0.8 -10.6,2.3 -2.8,1.3 -5.4,2.9 -7.6,5.1 L 83.5,128.6 c -2.2,2.2 -4,4.7 -5.1,7.6 -1.5,3.3 -2.3,6.9 -2.3,10.6 l -0.1,5.7 0,103.5 180,0 z" /><linearGradient
         y2="30.875"
         x2="447.125"
         y1="239"
         x1="239"
         gradientUnits="userSpaceOnUse"
         id="SVGID_2_"><stop
           id="stop21"
           style="stop-color:#FFFFFF;stop-opacity:0.2"
           offset="0" /><stop
           id="stop23"
           style="stop-color:#FFFFFF;stop-opacity:0"
           offset="1" /></linearGradient><path
         style="fill:url(#SVGID_2_)"
         id="path25"
         d="m 416,8 -160,0 0,248 180,0 0,-228 C 436,17 427,8 416,8 Z" /><linearGradient
         y2="273"
         x2="273"
         y1="481.125"
         x1="64.875"
         gradientUnits="userSpaceOnUse"
         id="SVGID_3_"><stop
           id="stop28"
           style="stop-color:#FFFFFF;stop-opacity:0.2"
           offset="0" /><stop
           id="stop30"
           style="stop-color:#FFFFFF;stop-opacity:0"
           offset="1" /></linearGradient><path
         style="fill:url(#SVGID_3_)"
         id="path32"
         d="m 76,484 c 0,11 9,20 20,20 l 160,0 0,-248 -180,0 0,228 z" /><linearGradient
         y2="270.0625"
         x2="450.0625"
         y1="484.0625"
         x1="236.0625"
         gradientUnits="userSpaceOnUse"
         id="SVGID_4_"><stop
           id="stop35"
           style="stop-color:#FFFFFF;stop-opacity:0.2"
           offset="0" /><stop
           id="stop37"
           style="stop-color:#FFFFFF;stop-opacity:0"
           offset="1" /></linearGradient><path
         style="fill:url(#SVGID_4_)"
         id="path39"
         d="m 256,256 0,248 160,0 c 11,0 20,-9 20,-20 l 0,-228 -180,0 z" /></g></g></svg>